<svg id="Capa_1" enable-background="new 0 0 512 512" height="512" viewBox="0 0 512 512" width="512" xmlns="http://www.w3.org/2000/svg"><path d="m495.787 444.991c-10.607-15.359-25.44-26.972-42.896-33.583l-37.723-14.287c3.848-2.68 7.484-5.689 10.823-9.04 14.688-14.741 22.737-34.101 22.665-54.514l-.025-7.03-5.419-4.479c-18.353-15.167-28.878-37.52-28.878-61.329v-23.954c5.079-8.691 8.005-18.787 8.005-29.559s-2.926-20.868-8.005-29.558v-19.327c-.001-87.303-71.029-158.331-158.334-158.331s-158.333 71.028-158.333 158.333v19.327c-5.079 8.691-8.005 18.787-8.005 29.558 0 10.772 2.926 20.868 8.005 29.56v23.953c0 23.809-10.525 46.162-28.878 61.329l-5.419 4.479-.025 7.03c-.073 20.413 7.976 39.772 22.665 54.514 3.339 3.351 6.975 6.36 10.823 9.04l-37.723 14.286c-17.456 6.611-32.289 18.224-42.896 33.583s-16.214 33.342-16.214 52.008v15h512v-15c0-18.666-5.606-36.65-16.213-52.009zm-347.345-208.991c-15.87 0-28.781-12.911-28.781-28.781s12.911-28.781 28.781-28.781h34.095v-15c0-14.574 10.394-26.767 24.158-29.554 27.717 28.408 65.82 44.554 105.724 44.554h51.138c15.87 0 28.781 12.911 28.781 28.781s-12.911 28.781-28.781 28.781h-34.095v15.502c0 43.651-32.956 79.165-73.463 79.165s-73.463-35.513-73.463-79.165v-15.502zm63.268 114.143c13.434 6.742 28.451 10.523 44.29 10.523s30.856-3.781 44.29-10.523l12.391 40.244 27.312 10.344c-51.239 31.587-116.719 31.582-167.954-.012l27.28-10.332zm206.533-10.157c-1.358 10.038-6.032 19.424-13.503 26.921-8.406 8.437-19.68 13.57-31.348 14.393l-36.358-13.77-11.005-35.742c17.36-16.871 29.256-39.911 32.525-65.789h5.003c7.319 0 14.325-1.356 20.794-3.811.39 29.621 12.6 57.506 33.892 77.798zm-162.243-309.986c68.701 0 124.962 54.265 128.183 122.183-6.422-2.415-13.37-3.745-20.625-3.745h-51.138c-33.87 0-66.111-14.597-88.458-40.049l-4.481-5.103h-6.791c-27.992 0-51.579 19.217-58.259 45.152h-5.988c-7.255 0-14.204 1.33-20.625 3.745 3.22-67.918 59.481-122.183 128.182-122.183zm-148.74 336.908c-7.471-7.498-12.145-16.884-13.503-26.922 21.292-20.292 33.502-48.177 33.891-77.797 6.469 2.455 13.475 3.811 20.794 3.811h5.003c3.269 25.878 15.165 48.918 32.525 65.789l-11.004 35.742-36.358 13.77c-11.667-.823-22.942-5.957-31.348-14.393zm301.454 115.092v-27.667h-30v27.667h-245.428v-27.667h-30v27.667h-71.404c4.876-19.167 18.878-35.35 37.852-42.536l68.432-25.917c33.463 26.527 74.954 41.044 117.839 41.049h.021c42.861 0 84.334-14.499 117.84-41.038l68.401 25.905c18.974 7.186 32.976 23.369 37.852 42.536h-71.405z"/></svg>